PathFileType        4      (X/Y/Z)      C:\Users\pc\Desktop\IMUTRC\Sujet_04\Sujet_04_velo_100.trc         
DataRate	CameraRate	NumFrames	NumMarkers	Units	OrigDataRate	OrigDataStartFrame	OrigNumFrames
60.0	60.0	4	64	mm	60.0	1	975
Frame#	Time	pHipOrigin			pRightASI			pLeftASI			pRightCSI			pLeftCSI			pRightIschialTub			pLeftIschialTub			pSacrum			pL5SpinalProcess			pL3SpinalProcess			pT12SpinalProcess			pIJ			pT4SpinalProcess			pT8SpinalProcess			pPX			pC7SpinalProcess			pTopOfHead			pRightAuricularis			pLeftAuricularis			pBackOfHead			pRightAcromion			pLeftAcromion			pRightArmLatEpicondyle			pRightArmMedEpicondyle			pLeftArmLatEpicondyle			pLeftArmMedEpicondyle			pRightUlnarStyloid			pRightRadialStyloid			pRightOlecranon			pLeftUlnarStyloid			pLeftRadialStyloid			pLeftOlecranon			pRightTopOfHand			pRightPinky			pRightBallHand			pLeftTopOfHand			pLeftPinky			pLeftBallHand			pRightGreaterTrochanter			pRightKneeLatEpicondyle			pRightKneeMedEpicondyle			pRightPatella			pLeftGreaterTrochanter			pLeftKneeLatEpicondyle			pLeftKneeMedEpicondyle			pLeftPatella			pRightTibialTub			pRightLatMalleolus			pRightMedMalleolus			pLeftTibialTub			pLeftLatMalleolus			pLeftMedMalleolus			pRightHeelFoot			pRightFirstMetatarsal			pRightFifthMetatarsal			pRightPivotFoot			pRightHeelCenter			pRightToe			pLeftHeelFoot			pLeftFirstMetatarsal			pLeftFifthMetatarsal			pLeftPivotFoot			pLeftHeelCenter			pLeftToe			
		X1	Y1	Z1	X2	Y2	Z2	X3	Y3	Z3	X4	Y4	Z4	X5	Y5	Z5	X6	Y6	Z6	X7	Y7	Z7	X8	Y8	Z8	X9	Y9	Z9	X10	Y10	Z10	X11	Y11	Z11	X12	Y12	Z12	X13	Y13	Z13	X14	Y14	Z14	X15	Y15	Z15	X16	Y16	Z16	X17	Y17	Z17	X18	Y18	Z18	X19	Y19	Z19	X20	Y20	Z20	X21	Y21	Z21	X22	Y22	Z22	X23	Y23	Z23	X24	Y24	Z24	X25	Y25	Z25	X26	Y26	Z26	X27	Y27	Z27	X28	Y28	Z28	X29	Y29	Z29	X30	Y30	Z30	X31	Y31	Z31	X32	Y32	Z32	X33	Y33	Z33	X34	Y34	Z34	X35	Y35	Z35	X36	Y36	Z36	X37	Y37	Z37	X38	Y38	Z38	X39	Y39	Z39	X40	Y40	Z40	X41	Y41	Z41	X42	Y42	Z42	X43	Y43	Z43	X44	Y44	Z44	X45	Y45	Z45	X46	Y46	Z46	X47	Y47	Z47	X48	Y48	Z48	X49	Y49	Z49	X50	Y50	Z50	X51	Y51	Z51	X52	Y52	Z52	X53	Y53	Z53	X54	Y54	Z54	X55	Y55	Z55	X56	Y56	Z56	X57	Y57	Z57	X58	Y58	Z58	X59	Y59	Z59	X60	Y60	Z60	X61	Y61	Z61	X62	Y62	Z62	X63	Y63	Z63	X64	Y64	Z64	
1	0.0	4.920011254230237E-14	1250.02225	5.863441087832831E-14	91.92516756032917	1326.20172	154.95633750772484	95.14095714251513	1351.09852	-137.9137325176289	60.742565186481926	1409.0521	134.93675549252438	63.33013656973203	1429.42221	-104.84559718202372	-72.59672221522706	1198.14397	55.16220882923431	-71.28746489708519	1208.32903	-64.66419968599112	-65.57646803673407	1287.78439	2.464610451752719	-1.6728850911903006	1382.96406	10.42298509018287	65.99159976094194	1482.78953	23.234079288933735	129.66815186988663	1572.78732	36.20360261888493	394.782910271794	1606.02277	65.27469419098941	276.52565656983245	1709.48152	63.426273283376915	203.04184415979694	1653.43392	50.444277317439685	297.6719247255965	1525.25705	47.39300096874885	323.1186383577117	1742.59784	71.60353853824381	560.2779111341595	1830.03448	94.50843406308985	478.0575294771004	1771.84266	154.32474498924222	485.1439763886272	1783.33808	17.7546005137186	451.6222844500195	1822.35102	88.2576616859512	307.09868984228603	1679.4624	256.645262535863	350.7289253174244	1723.12116	-118.34298697293164	335.6073890056706	1358.24593	255.03854297597255	320.12639200758053	1355.8039	189.8875489411766	395.29718747082217	1398.09274	-93.30507504129278	360.80092161253305	1397.25887	-35.82416427992837	444.23131370876115	1128.27805	193.51589459961676	491.6917580573721	1151.50713	203.3755894128095	304.5494432421858	1346.45271	220.06368280750826	446.49750180700215	1160.20315	9.596124805155853	496.80307772296305	1177.53561	17.37948405621779	354.0093888301355	1389.99234	-70.78985996154924	665.5874593169694	1079.3183	281.0754779600519	570.5441445012555	1058.47169	241.00993720897176	507.67704152274985	1102.48782	201.39192885300574	669.4588430911931	1069.31193	-9.62337055026336	565.4322862117981	1068.23982	6.599646210785124	503.7589689061425	1126.01471	24.371936493200593	17.915204129182996	1225.84018	177.94864251705582	335.59518956879435	929.04403	195.25724860788836	343.8375884278355	923.38566	111.67725212621953	369.6793858546424	962.63685	151.18449361053447	11.245926940858197	1237.03779	-178.31451389538782	324.12452247324455	936.19144	-209.53764299604416	340.45008652602496	935.23845	-126.97903915286459	362.51593282536624	971.86892	-170.91949574232146	389.1890765151991	886.04045	156.27356201850347	246.54248159332533	493.29034	183.36524575327076	253.1975697309108	491.92042	117.44515632528854	351.3125498364536	879.60779	-173.33708945348218	23.302561357397906	619.32298	-178.40118669625264	33.10270025203852	614.14111	-113.07077069381583	203.5658778980957	404.72203	153.1819034602877	381.4876907822995	395.54952	127.35848421532793	374.46726353831133	401.92263	211.46816509076803	401.9953114411962	397.81287	170.3308415400279	246.04762761668314	405.55589	156.64491094884318	492.33077787408706	394.23916	178.19190171189587	-61.82552962218267	576.55765	-132.70625028313626	75.92190031531726	469.22739	-88.82003836424259	68.6981978729398	458.26803	-172.4848232858964	90.81642525582228	448.44035	-129.07560886138964	-27.742931422660867	550.9461	-132.3033256562492	159.96078288075958	389.77203	-127.38083298954943	
2	0.017	4.920011254230237E-14	1250.02225	5.863441087832831E-14	91.64405742024807	1325.90391	155.26996698073972	94.044334619497	1352.70669	-137.46007036601236	59.77705562002947	1408.63517	135.82466427178542	61.71693346190439	1430.55389	-103.80295928184205	-72.07122437351823	1197.25055	54.954527012602775	-71.10495480851209	1208.20991	-64.81734383399893	-65.8649129259383	1287.24834	2.8621576222771203	-2.6383946576427553	1382.90449	11.310893869443888	64.43870584671328	1483.1469	24.070598596631765	127.62646723151369	1573.56163	36.828239469568494	392.70396547006925	1608.167	63.90904230273907	273.9463985102095	1711.03012	62.94696052236365	200.62464230977338	1654.56559	50.52874682816815	295.8935043553566	1526.92478	46.94146917538801	320.4156020906463	1744.3847	70.60606145207649	557.1699865195703	1833.01257	93.30642212478347	475.0864957719283	1774.52294	153.00788099340534	482.4702984016826	1785.78011	16.4214756188465	448.5820166339047	1824.79305	86.76562877854047	305.6323152047165	1681.78531	256.0096433414607	346.1032365937027	1724.78888	-119.59323375786421	332.6369083462858	1359.91366	256.13153199271557	316.94245800658894	1357.23338	191.00414646183017	392.41479697268875	1399.87959	-93.21904230641638	358.8431393507808	1399.28397	-35.192179824369475	441.0562917693611	1129.7671	195.01376430343896	488.4564269243731	1152.99617	205.07957770911534	301.502387294859	1348.06088	221.06541294974244	443.9098706432544	1162.46649	11.145391640985451	494.1315365221502	1179.85852	18.921409715048213	351.57751228655786	1391.89832	-70.53757680456664	662.3227634759735	1081.04559	283.1151064046182	567.33975662129	1060.0203	242.84346114937492	504.5256280872603	1103.97686	203.10325189843476	666.8051324414396	1071.39659	-7.318892864651161	562.8006144139309	1070.4436	8.652380929449748	501.07274535133126	1128.27805	26.081682226161206	16.91559668476002	1223.21947	177.77663589086322	314.1413747338027	905.75539	192.57700771324983	322.1320358212042	900.45439	108.97499412845934	350.4382380175352	937.5018	148.8246715526911	12.519295687918643	1238.76508	-178.3722202772689	340.79477249910144	954.89383	-209.6857286169458	356.7317142987012	954.23865	-127.03428215891293	377.0752628693391	992.2986	-170.6180993357929	367.7295042435527	864.65779	154.14242870205257	232.99318952427524	468.87002	177.3179295960918	240.99086643154334	467.85747	111.51530146523406	364.99131227816474	899.08447	-174.0851126504711	29.906472133525057	648.03174	-178.49985201919685	40.27038687203132	641.83732	-113.33149988680384	188.86485850329598	381.61207	144.83540745644137	366.74577771787284	369.16367	120.44584228354907	359.04670082372365	373.74992	204.58070131492372	386.895727037067	369.99753	163.64057143932348	231.26426140896626	381.43339	148.75626241610746	477.00462865894497	364.22004	172.15824240946597	-54.60329124524561	604.67079	-132.6239904904202	83.4619418615794	497.51922	-89.47097355075577	76.02478607759514	486.79811	-173.112149968499	98.27989794201855	476.91086	-129.81779526196715	-20.506009459157	579.1188	-132.3889000259839	167.62145566997185	418.24254	-128.44399004014105	
3	0.033	4.920011254230237E-14	1250.02225	5.863441087832831E-14	91.36295494061142	1325.6061	155.5835900258785	92.94036325903521	1354.31486	-136.92249174945462	58.84983691148606	1408.21823	136.75820631852304	60.14201601667804	1431.74512	-102.71470986294872	-71.5457252992411	1196.29756	54.746831107650706	-70.88416152247439	1208.09078	-64.92484828665405	-66.1533565825742	1286.71228	3.2596907044809953	-3.642188654128139	1382.84493	12.153177041672743	62.84018632545245	1483.50427	24.945402334362726	125.58478136057239	1574.27637	37.45289040857258	390.66330509837746	1610.31122	62.589016021520905	271.32884316480147	1712.57873	62.42200683342932	198.2457325502272	1655.69727	50.65883551805268	294.1224187342398	1528.53295	46.406019684517645	317.71255816313635	1746.17155	69.60859079378531	554.1077016003339	1835.93109	92.06612698901242	472.1154556388801	1777.20322	151.691009337124	479.7510024681502	1788.22214	15.126628726131202	445.5417488177899	1827.17552	85.27359587112977	304.12765613711395	1684.04865	255.32839854002611	341.5231875653337	1726.45661	-120.88176374026143	329.5825099893915	1361.64095	257.21718626033544	313.7968084356303	1358.66286	192.1663695895159	389.5397464189863	1401.60688	-93.21690552028457	356.97662239141334	1401.42819	-34.63676299630808	437.96518629490225	1131.25614	196.51898284470485	485.30501348888356	1154.42566	206.7909007545443	298.37142007789885	1349.66904	222.05981600329795	441.2766074445984	1164.72984	12.7329352464036	491.49827332349423	1182.18143	20.50895332046636	349.1839125125688	1393.80429	-70.23966161267583	659.1036932420097	1082.83244	285.1164504191514	564.219285206266	1061.62846	244.68433392722173	501.3742146517709	1105.46591	204.81457494386376	664.1970550591625	1073.48125	-5.052706036948052	560.1306440977105	1072.64739	10.65948880851397	498.42480622655285	1130.60096	27.837053566153912	15.793788345362913	1220.65831	177.55165482019478	291.3140202156504	884.07492	189.64977630526562	299.0602859409797	879.01217	105.94182149196796	329.69401485316996	913.6771	146.2488022345358	13.701413220914688	1240.6115	-178.3533577990841	356.51261800003596	974.48964	-209.57891541339478	372.0609387790234	974.13227	-126.8346404288292	390.5982783513245	1013.44302	-170.06914528181085	346.22429870442977	843.27512	152.0495862435108	219.51310981740295	444.62839	171.44578754579447	228.89168810102765	443.97321	105.80624878423005	378.7083591499088	918.68029	-174.78751024042793	36.83134836435859	676.97874	-178.40133898789003	47.67513533754147	669.71221	-113.40238424209562	174.15649027105258	358.62124	136.57282791753624	352.01119940256933	342.83738	113.4492826542607	343.5878677674235	345.57722	197.6476131646155	371.7195596845515	342.1822	156.8590488919864	216.52653489660202	357.43001	140.82933068590714	461.67848587167896	334.20093	166.1245907674804	-47.38105929618466	632.78393	-132.54173835814862	91.00198983571762	525.81105	-90.12190107682451	83.35138837057096	515.32818	-173.73947541853332	105.7433706282148	505.32181	-130.55998166254466	-13.223463121189297	607.29151	-132.51274473743098	175.28946197573893	446.77262	-129.59105069992168	
4	0.05	4.920011254230237E-14	1250.02225	5.863441087832831E-14	91.42484787455489	1325.01048	155.84266897451744	92.01156081014727	1355.8039	-136.4541472438396	58.38780165574471	1407.56305	137.6901633923478	58.818835110523054	1432.75767	-101.60442925261326	-71.11147867159661	1195.52326	54.615718151085034	-70.83119350587465	1208.15035	-65.0470568420726	-66.31959934423598	1286.35491	3.7101982311606996	-4.3103284140326075	1382.78537	13.024826154466874	61.829051151967825	1483.68296	25.87159554365668	124.37487643204778	1574.6933	38.23485795932637	389.45600940944684	1611.38333	61.89150389317507	269.9096714467325	1713.35303	62.213293089672206	196.8590813976603	1656.35244	51.04484729907102	293.02421889875325	1529.36681	46.394491955456004	316.2388423485676	1747.06498	69.05688163644804	552.3512983332157	1837.53926	91.36285742401185	470.40469206711447	1778.69226	150.94945657465888	478.29931018457916	1789.47293	14.323189457598659	443.8456611721466	1828.48587	84.36421537408998	303.6844910200018	1685.35901	255.07823165297876	338.66858446272886	1727.11179	-121.59656103432366	327.68662066158265	1362.59394	258.10824966453333	311.7330913732468	1359.43717	193.04275706759137	387.6716521471504	1402.38118	-93.12667857290143	355.87265869139594	1402.44074	-34.09919080762643	435.6439688289166	1131.91132	197.92243904908148	483.05303013384065	1154.96171	208.36952587049475	296.4372463200571	1350.56247	222.90525380046364	439.41324511016785	1165.92107	14.218731835821274	489.6275698120644	1183.3131	22.078659946949188	347.63677603499485	1394.63816	-69.95224988316548	656.6545238722714	1083.54719	287.01604741768443	561.8687094601595	1062.28364	246.42343794030307	499.122237724604	1106.06152	206.39320772025866	662.2220017200144	1074.31512	-2.7734129351466663	558.0936978246189	1073.65994	12.679702961676469	496.455502663615	1131.73263	29.567245517643755	14.801522077939154	1218.3354	177.2957381569371	269.63783354958423	865.7299	186.6118640709245	277.08674355668614	860.84584	102.92017015666205	309.77265414175383	893.36655	143.44896968451707	14.715703019336146	1242.75572	-178.34917124702173	370.68909088792736	994.44282	-209.73379039807674	385.76488703711345	994.20457	-126.9040204035332	402.53429561323463	1034.76612	-169.74359498602888	325.79369981777165	824.33449	149.75480531667165	203.0961083716496	424.25828	165.3166981376822	213.60382974379462	424.02003	99.8182227492767	391.93819903785294	938.51435	-175.23659274627659	47.158342642627375	700.80344	-178.04744825079223	58.3068341714814	693.17954	-113.14867086897428	155.8765925164548	339.85929	127.5749972055952	333.4696198876147	319.6083	105.99283221580716	324.16887650771224	320.44216	190.07210879568024	352.65983116533164	317.28539	149.52636380522324	198.16430441740755	337.3577	132.28934867764502	442.1714044507163	306.50472	159.55604268041185	-36.14727967214953	654.64309	-132.4044543550261	104.27010649325037	550.05267	-90.52535154776491	96.7490483326454	539.80806	-174.17387557038347	119.35448269932772	530.03993	-131.01797622998487	-1.5171588673528618	629.80585	-132.46095574428642	189.89860417880638	472.97978	-130.34222852184746	
